<svg xmlns="http://www.w3.org/2000/svg" viewBox="0 0 89 89" preserveAspectRatio="xMidYMid meet" class="css-8aabad" id="ebhafedc"><defs id="SvgjsDefs1195"></defs><g id="SvgjsG1196" transform="matrix(1,0,0,1,0,0)" fill="#112"><rect xmlns="http://www.w3.org/2000/svg" width="90" height="89" rx="10" ry="10"></rect></g><g id="SvgjsG1197" transform="matrix(0.6376908616066043,0,0,0.6376908616066043,13.115427728498755,12.368221323566615)" fill="#fff"><g xmlns="http://www.w3.org/2000/svg" transform="translate(0,-952.36218)"><path style="baseline-shift:baseline;block-progression:tb;direction:ltr;text-indent:0;text-transform:none;" fill="#fff" d="m16.141,964.33c-0.58125,0-1.1167,0.30712-1.5625,0.90625-0.44582,0.59912-0.75,1.453-0.75,2.4375v10.469h4.6875v-10.469c0-0.98091-0.32786-1.8371-0.78125-2.4375-0.45339-0.60038-1.0125-0.90625-1.5938-0.90625zm16.938,0c-0.58125,0-1.1479,0.30712-1.5938,0.90625-0.44582,0.59912-0.75,1.453-0.75,2.4375v10.469h4.6875v-10.469c0-0.98091-0.29661-1.8371-0.75-2.4375-0.45339-0.60038-1.0125-0.90625-1.5938-0.90625zm16.906,0c-0.58125,0-1.1167,0.30712-1.5625,0.90625-0.44582,0.59912-0.75,1.453-0.75,2.4375v10.469h4.6562v-10.469c0-0.98091-0.29661-1.8371-0.75-2.4375-0.45339-0.60038-1.0125-0.90625-1.5938-0.90625zm16.906,0c-0.58125,0-1.1167,0.30712-1.5625,0.90625-0.44582,0.59912-0.75,1.453-0.75,2.4375v10.469h4.6875v-10.469c0-0.98091-0.32786-1.8371-0.78125-2.4375-0.45339-0.60038-1.0125-0.90625-1.5938-0.90625zm16.938,0c-0.58125,0-1.1479,0.30712-1.5938,0.90625-0.44582,0.59912-0.75,1.453-0.75,2.4375v10.469h4.6875v-10.469c0-0.98091-0.29661-1.8371-0.75-2.4375-0.45339-0.60038-1.0125-0.90625-1.5938-0.90625zm-63.812,5.4375,0,2.7188,9.2188,0,0-2.7188-9.2188,0zm16.906,0,0,2.7188,9.25,0,0-2.7188-9.25,0zm16.906,0,0,2.7188,9.25,0,0-2.7188-9.25,0zm16.938,0,0,2.7188,9.2188,0,0-2.7188-9.2188,0zm-50.75,4.2188,0,4.1562,9.2188,0,0-4.1562-9.2188,0zm16.906,0,0,4.1562,9.25,0,0-4.1562-9.25,0zm16.906,0,0,4.1562,9.25,0,0-4.1562-9.25,0zm16.938,0,0,4.1562,9.2188,0,0-4.1562-9.2188,0zm-59.969,5.6562,0,3.4062,78.406,0,0-3.4062-2.125,0-6.4688,0-10.438,0-6.4688,0-10.469,0-6.4375,0-10.469,0-6.4688,0-10.438,0-6.4688,0-2.1562,0zm0,4.9062,0,55.844,18.906,0,0-22.438c0-10.934,8.9981-19.719,20.156-19.719s20.188,8.7852,20.188,19.719v22.438h19.156v-55.844h-78.406zm39.062,15.188c-10.371,0-18.656,8.1088-18.656,18.219v22.438h2.9062c-0.05871-0.5369-0.125-1.069-0.125-1.625v-19.438c0-8.7344,7.1632-15.781,16.031-15.781,8.868,0,16.031,7.0487,16.031,15.781v19.438c0,0.5564-0.09747,1.0878-0.15625,1.625h2.6562v-22.438c0-10.11-8.3161-18.219-18.688-18.219z"></path></g></g></svg>
